<svg xmlns="http://www.w3.org/2000/svg" width="80" height="80"  viewBox="0 0 866.21 379.8"><g id="Capa_2" data-name="Capa 2" fill="#D9CCB4"><g id="Layer_1" data-name="Layer 1"><path d="M403.28,279.4c-6.6-6.16-12.6-7.83-21.64-17.67-15.75-17.14-22.58-39.94-25.88-56.55a139.56,139.56,0,0,0,.55,36.52,126,126,0,0,0,37.84,73.22c-26.42-23.81-44.23-63.47-45.42-104.91-.31-10.82.68-22.52,6.24-30.68-23.72-8.14-48.39-5-72.64,0s-49.62,9.33-72.95-.47-43.77-38.27-40.9-69.45c-3.6,21.16-6.74,42.9-.85,63.2A80.06,80.06,0,0,0,225.2,227.9c24.66,6,50.05,1.17,74.87-3.7-20.07,4.42-38.93,8.26-59,12.68-18.12,4-38.31,7.47-53.57-5.62,17.75,19.82,36.73,39.34,60.23,41.71,12.43,1.25,24.81-2.38,37-6l21.72-6.45c-21.89,16.76-44.88,32.38-70.36,34,3.33,1.71,6.58,3.79,9.91,5.49a126.24,126.24,0,0,0,14.22,6.56c18.56,6.77,39.19,3.71,56-8.31-9,11.44-19.4,19.85-31.51,24.58,17.18,6.34,35.1,12.42,51.4,3a89.93,89.93,0,0,1-9.22,14.42c19.1,4.58,38.2-5.82,57.33-1.49,17.24,3.91,32.47,20.06,38.65,41C437.41,346.76,427.24,301.74,403.28,279.4Z"/><path d="M311.22,347.15c3.36-2,6.6-4.92,10.08-6.62-21.05,0-41.56-6.11-60.37-17.89,5.09.91,9.93-.38,14.62-3a116.38,116.38,0,0,1-41.31-15.42c-7.66-4.75-15.11-10.62-20.3-19.08,5.79.13,11.28-1.57,16.88-3.44-10.36-3.48-19.45-9.31-28.7-16.06A89.36,89.36,0,0,1,189,254.17c-9.5-10.23-16.66-23.77-20.47-38.66,4.83,1.17,9,1.55,13.86,2.71a125.14,125.14,0,0,1-17.68-25.7,90.56,90.56,0,0,1-5.19-12,90.23,90.23,0,0,1-4.23-21.8c-1.89-.44-3.81-.93-5.82-1.55-32.07-9.77-64-24.28-89.42-50.48S16.47,41,18.13,0C13.7,6.38,12.05,14.06,11,22.38,6.6,55.91,8.15,92.17,22.5,121.07c19.47,39.2,57.39,56.5,92.54,71-32.79-2.82-65-16.42-94.1-35.53C12.06,150.72,2.79,143.1,0,131.11,3.39,156.46,6.4,183,21.58,200.37c6.7,7.69,15.05,12.78,23.48,17.1,27.36,14,58,20.93,86.73,11.94-24.16,11.61-49.52,17-75.4,15.6-7.41-.39-15-1.37-21.75-5.1,15.59,17.51,32.59,32,52.59,40s42.34,8.48,61.66-1.77a72,72,0,0,1-49.64,25.4c.42,1.78,1,3,2.45,3.52a167.74,167.74,0,0,0,58.3,9.8c6.46-.08,13.14-.61,18.91-4.22-3.79,7.64-8.07,13-14.51,17.05,17.85,1.19,35.07,1.87,52.87-.13-4.16,5-7.67,9.15-12.65,12.8,8.21.15,14.79,2.22,23,2.37,8.47.15,17.54.1,24.55-5.82a60.92,60.92,0,0,1-8.91,16.21c16.21,2.36,32.16.48,48-4.42a34,34,0,0,1-5.17,9.83c12.81,1,25.49,2.26,37.69-2.67,2.61-1.05,5.14-2.37,7.67-3.68l13.23-6.84C333.17,348.2,322.74,347.73,311.22,347.15Z"/><path d="M539.32,340.3a90,90,0,0,1-9.23-14.42c16.31,9.39,34.22,3.31,51.4-3-12.11-4.73-22.55-13.14-31.51-24.58,16.85,12,37.48,15.08,56,8.31A125.43,125.43,0,0,0,620.24,300c3.34-1.7,6.58-3.78,9.92-5.49-25.48-1.62-48.48-17.24-70.37-34L581.51,267c12.15,3.61,24.53,7.24,37,6C642,270.6,661,251.08,678.7,231.26c-15.26,13.09-35.44,9.61-53.56,5.62-20.07-4.42-38.93-8.26-59-12.68,24.81,4.87,50.21,9.74,74.86,3.7a80.08,80.08,0,0,0,57.58-55.31c5.89-20.3,2.74-42-.86-63.2,2.87,31.18-17.56,59.66-40.9,69.45s-48.69,5.4-72.94.47-48.93-8.12-72.65,0c5.57,8.16,6.55,19.86,6.24,30.68-1.18,41.44-19,81.1-45.42,104.91A126,126,0,0,0,509.9,241.7a139.56,139.56,0,0,0,.55-36.52c-3.3,16.61-10.12,39.41-25.87,56.55-9.05,9.84-15,11.51-21.65,17.67-24,22.34-34.13,67.36-19.59,100.4,6.18-20.93,21.4-37.08,38.64-41C501.12,334.48,520.22,344.88,539.32,340.3Z"/><path d="M845.28,156.55c-29.07,19.11-61.31,32.71-94.11,35.53,35.15-14.51,73.07-31.81,92.54-71,14.35-28.9,15.9-65.16,11.54-98.69-1.08-8.32-2.74-16-7.17-22.38,1.67,41-16.51,80.53-41.94,106.74s-57.35,40.71-89.42,50.48c-2,.62-3.93,1.11-5.82,1.55a89.75,89.75,0,0,1-4.23,21.8,88,88,0,0,1-5.19,12,125.11,125.11,0,0,1-17.67,25.7c4.83-1.16,9-1.54,13.85-2.71-3.8,14.89-11,28.43-20.47,38.66a89.81,89.81,0,0,1-13.09,11.48c-9.26,6.75-18.35,12.58-28.71,16.06,5.6,1.87,11.09,3.57,16.89,3.44-5.2,8.46-12.65,14.33-20.31,19.08a116.24,116.24,0,0,1-41.31,15.42c4.69,2.61,9.54,3.9,14.62,3-18.81,11.78-39.31,17.84-60.37,17.89,3.49,1.7,6.73,4.57,10.09,6.62-11.53.58-22,1.05-33.47.16l13.23,6.84c2.53,1.31,5.06,2.63,7.67,3.68,12.2,4.93,24.89,3.67,37.69,2.67a33.72,33.72,0,0,1-5.16-9.83c15.83,4.9,31.78,6.78,48,4.42A61.2,61.2,0,0,1,614,338.88c7,5.92,16.09,6,24.56,5.82,8.21-.15,14.78-2.22,23-2.37-5-3.65-8.49-7.83-12.65-12.8,17.8,2,35,1.32,52.87.13-6.44-4.05-10.72-9.41-14.51-17.05,5.77,3.61,12.45,4.14,18.91,4.22a167.74,167.74,0,0,0,58.3-9.8c1.43-.51,2-1.74,2.45-3.52a72,72,0,0,1-49.64-25.4c19.32,10.25,41.65,9.71,61.66,1.77s37-22.46,52.59-40c-6.79,3.73-14.33,4.71-21.75,5.1-25.87,1.37-51.24-4-75.4-15.6,28.7,9,59.37,2.07,86.73-11.94,8.44-4.32,16.78-9.41,23.48-17.1,15.19-17.42,18.19-43.91,21.58-69.26C863.42,143.1,854.15,150.72,845.28,156.55Z"/></g></g></svg>